<svg id="visual" viewBox="0 0 1920 1920" width="1920" height="1920" xmlns="http://www.w3.org/2000/svg" xmlns:xlink="http://www.w3.org/1999/xlink" version="1.1"><rect x="0" y="0" width="1920" height="1920" fill="#FFFFFF"></rect><defs><linearGradient id="grad1_0" x1="0%" y1="0%" x2="100%" y2="100%"><stop offset="30%" stop-color="#4facf7" stop-opacity="1"></stop><stop offset="70%" stop-color="#4facf7" stop-opacity="1"></stop></linearGradient></defs><defs><linearGradient id="grad1_1" x1="0%" y1="0%" x2="100%" y2="100%"><stop offset="30%" stop-color="#4facf7" stop-opacity="1"></stop><stop offset="70%" stop-color="#b4d4fc" stop-opacity="1"></stop></linearGradient></defs><defs><linearGradient id="grad1_2" x1="0%" y1="0%" x2="100%" y2="100%"><stop offset="30%" stop-color="#ffffff" stop-opacity="1"></stop><stop offset="70%" stop-color="#b4d4fc" stop-opacity="1"></stop></linearGradient></defs><defs><linearGradient id="grad2_0" x1="0%" y1="0%" x2="100%" y2="100%"><stop offset="30%" stop-color="#4facf7" stop-opacity="1"></stop><stop offset="70%" stop-color="#4facf7" stop-opacity="1"></stop></linearGradient></defs><defs><linearGradient id="grad2_1" x1="0%" y1="0%" x2="100%" y2="100%"><stop offset="30%" stop-color="#b4d4fc" stop-opacity="1"></stop><stop offset="70%" stop-color="#4facf7" stop-opacity="1"></stop></linearGradient></defs><defs><linearGradient id="grad2_2" x1="0%" y1="0%" x2="100%" y2="100%"><stop offset="30%" stop-color="#b4d4fc" stop-opacity="1"></stop><stop offset="70%" stop-color="#ffffff" stop-opacity="1"></stop></linearGradient></defs><g transform="translate(1920, 0)"><path d="M0 882.5C-81.6 837.8 -163.2 793.1 -250 769.4C-336.8 745.7 -428.6 743 -513.7 707.1C-598.8 671.1 -677.1 601.9 -713.9 518.7C-750.8 435.5 -746.3 338.2 -767.5 249.4C-788.7 160.6 -835.6 80.3 -882.5 0L0 0Z" fill="#dbe9fd"></path><path d="M0 588.3C-54.4 558.5 -108.8 528.7 -166.7 512.9C-224.5 497.1 -285.8 495.3 -342.5 471.4C-399.2 447.4 -451.4 401.3 -476 345.8C-500.5 290.3 -497.5 225.4 -511.7 166.3C-525.8 107.1 -557.1 53.5 -588.3 0L0 0Z" fill="#88c0f9"></path><path d="M0 294.2C-27.2 279.3 -54.4 264.4 -83.3 256.5C-112.3 248.6 -142.9 247.7 -171.2 235.7C-199.6 223.7 -225.7 200.6 -238 172.9C-250.3 145.2 -248.8 112.7 -255.8 83.1C-262.9 53.5 -278.5 26.8 -294.2 0L0 0Z" fill="#4facf7"></path></g><g transform="translate(0, 1920)"><path d="M0 -882.5C72.4 -821.5 144.7 -760.6 242.9 -747.5C341.1 -734.5 465.1 -769.4 518.7 -713.9C572.3 -658.5 555.6 -512.7 582.5 -423.2C609.4 -333.7 679.8 -300.6 737.1 -239.5C794.3 -178.3 838.4 -89.2 882.5 0L0 0Z" fill="#dbe9fd"></path><path d="M0 -588.3C48.2 -547.7 96.5 -507 161.9 -498.4C227.4 -489.7 310 -512.9 345.8 -476C381.6 -439 370.4 -341.8 388.3 -282.1C406.2 -222.5 453.2 -200.4 491.4 -159.7C529.6 -118.9 558.9 -59.4 588.3 0L0 0Z" fill="#88c0f9"></path><path d="M0 -294.2C24.1 -273.8 48.2 -253.5 81 -249.2C113.7 -244.8 155 -256.5 172.9 -238C190.8 -219.5 185.2 -170.9 194.2 -141.1C203.1 -111.2 226.6 -100.2 245.7 -79.8C264.8 -59.4 279.5 -29.7 294.2 0L0 0Z" fill="#4facf7"></path></g></svg>